<?xml version="1.0" encoding="utf-8"?>
<!-- Generator: Adobe Illustrator 16.0.0, SVG Export Plug-In . SVG Version: 6.00 Build 0)  -->
<!DOCTYPE svg PUBLIC "-//W3C//DTD SVG 1.1//EN" "http://www.w3.org/Graphics/SVG/1.1/DTD/svg11.dtd">
<svg version="1.1" id="Layer_1" xmlns="http://www.w3.org/2000/svg" xmlns:xlink="http://www.w3.org/1999/xlink" x="0px" y="0px"
	 width="1359.885px" height="974.524px" viewBox="0 0 1359.885 974.524" enable-background="new 0 0 1359.885 974.524"
	 xml:space="preserve">
<rect width="1359.885" height="974.524"/>
<g>
	<path fill="#FFFFFF" d="M1264.236,595.04l1.053-3.598c0.555-1.921-0.49-3.474-2.309-3.474l-1.901-0.016
		c-1.848,0-3.783,1.551-4.32,3.471l-0.628,2.16h-5.307l0.617-2.142c0.562-1.921-0.489-3.474-2.309-3.474l-1.901-0.016
		c-1.826,0-3.768,1.551-4.328,3.471l-0.617,2.16h-5.302l0.609-2.142c0.562-1.921-0.477-3.474-2.309-3.474l-1.901-0.016
		c-1.826,0-3.765,1.551-4.317,3.471l-0.617,2.16h-5.307l0.617-2.142c0.56-1.921-0.49-3.474-2.319-3.474l-1.904-0.016
		c-1.823,0-3.765,1.551-4.307,3.471l-0.628,2.16h-5.302l0.612-2.142c0.562-1.921-0.49-3.474-2.319-3.474l-1.892-0.016
		c-0.997,0-2.003,0.479-2.816,1.201v-5.364c0-1.378-0.185-2.715-0.505-3.999c-2.91,1.406-7.496,0.539-11.44-2.499
		c-3.877-2.993-5.906-7.12-5.372-10.294h-14.337l-1.098,23.66l26.383,2.373l-26.604,2.381l-1.09,23.889
		c-0.239-0.977-0.552-1.862-0.82-2.803V465.301h-94.771c-21.351,0-39.182,6.873-52.644,19.387v-19.387h-27.557
		c3.749-3.468,6.398-6.092,6.398-6.092s12.037-12.042,18.925-21.608c6.865-9.575,17.519-28.055,30.454-38.573
		c12.118-9.843,29.512-9.983,44.206-8.032c0.028,0,2.365,0.328,3.749,0.514c24.407,3.316,49.942-5.138,68.698-23.912
		c32.643-32.614,32.643-85.508,0-118.133c-32.614-32.624-85.498-32.624-118.122,0c-18.777,18.767-27.231,44.305-23.918,68.717
		c0.186,1.376,0.509,3.715,0.509,3.738c1.956,14.697,1.808,32.083-8.012,44.2c-10.525,12.951-29.008,23.603-38.57,30.476
		c-9.582,6.883-21.619,18.917-21.619,18.917s-12.039,12.04-18.923,21.611c-5.052,7.027-12.148,18.806-20.688,28.732
		c-4.033,0.425-7.921,1.081-11.639,2.02c10.742-27.686,16.724-57.743,16.724-89.222c0-136.409-110.579-246.994-246.98-246.994
		c-136.415,0-247,110.585-247,246.994c0,30.382,5.596,59.429,15.638,86.309h-11.312c-8.188-9.741-15.034-21.021-19.922-27.839
		c-6.88-9.571-18.919-21.611-18.919-21.611s-12.038-12.034-21.619-18.917c-9.567-6.873-28.044-17.524-38.566-30.476
		c-9.834-12.117-9.979-29.503-8.032-44.2c0-0.023,0.338-2.362,0.521-3.738c3.312-24.412-5.138-49.95-23.917-68.717
		c-32.618-32.624-85.51-32.624-118.129,0c-32.632,32.625-32.632,85.519,0,118.133c18.759,18.774,44.298,27.229,68.704,23.912
		c1.387-0.186,3.726-0.514,3.749-0.514c14.69-1.951,32.088-1.811,44.204,8.032c12.941,10.519,23.599,28.998,30.461,38.573
		c6.887,9.566,18.925,21.608,18.925,21.608s2.469,2.452,6.021,5.753H176.36v88.577l15.514,2.715v80.604l-0.498-10.825l-28.014-2.504
		l27.782-2.493l-1.182-25.624l-26.601-2.381l26.379-2.373l-1.097-23.66h-14.337c0.535,3.174-1.488,7.301-5.369,10.294
		c-3.947,3.038-8.529,3.905-11.447,2.499c-0.319,1.284-0.502,2.621-0.502,3.999v5.364c-0.813-0.722-1.823-1.201-2.815-1.201
		l-1.903,0.016c-1.822,0-2.87,1.553-2.311,3.474l0.617,2.142h-5.302l-0.62-2.16c-0.548-1.92-2.487-3.471-4.329-3.471l-1.897,0.016
		c-1.822,0-2.871,1.553-2.312,3.474l0.617,2.142h-5.302l-0.625-2.16c-0.548-1.92-2.487-3.471-4.324-3.471l-1.902,0.016
		c-1.828,0-2.871,1.553-2.312,3.474l0.619,2.142h-5.303l-0.614-2.16c-0.553-1.92-2.497-3.471-4.334-3.471l-1.896,0.016
		c-1.822,0-2.871,1.553-2.309,3.474l0.619,2.142h-5.312l-0.62-2.16c-0.539-1.92-2.478-3.471-4.329-3.471l-1.897,0.016
		c-1.822,0-2.871,1.553-2.308,3.474l1.048,3.598c-0.749,0.795-1.205,1.847-1.205,3.022v22.208c0,2.475,2.012,4.489,4.492,4.489
		h5.289l0.623,2.157c0.541,1.894,2.479,3.473,4.298,3.444h1.906c1.842,0,2.871-1.551,2.325-3.471l-0.618-2.131h5.314l0.612,2.157
		c0.544,1.894,2.483,3.473,4.311,3.444h1.894c1.845,0,2.871-1.551,2.334-3.471l-0.618-2.131h5.303l0.619,2.157
		c0.549,1.894,2.487,3.473,4.306,3.444h1.898c1.841,0,2.879-1.551,2.331-3.471l-0.62-2.131h5.31l0.623,2.157
		c0.545,1.894,2.488,3.473,4.301,3.444h1.902c1.847,0,2.88-1.551,2.334-3.471l-0.618-2.131h2.71v7.394
		c0,0.956,0.105,1.881,0.258,2.798c2.893-1.581,7.639-0.75,11.691,2.382c4.454,3.421,6.468,8.371,4.962,11.609h17.973v4.322
		l-15.514,3.057v87.556h106.875v-88.575l-15.508-2.72v-2.576h25.911v-55.794h31.571v59.053l-15.587,3.057v87.556h106.885v-88.575
		l-15.518-2.72v-58.704h39.181v58.436l-15.301,2.713v88.851h106.389v-89.255l-15.305-2.384v-58.36h38.503v59.793l-15.304,3.057
		v87.149h404.215c22.036,0,39.594-5.511,52.657-16.331v16.331h94.76c53.491,0,80.743-31.958,81.121-94.935h14.068
		c-1.503-3.238,0.517-8.188,4.966-11.609c4.052-3.132,8.799-3.963,11.69-2.382c0.144-0.917,0.255-1.842,0.255-2.798v-7.394h2.705
		l-0.607,2.131c-0.544,1.92,0.479,3.471,2.327,3.471h1.901c1.818,0.028,3.755-1.551,4.312-3.444l0.617-2.157h5.307l-0.617,2.131
		c-0.545,1.92,0.49,3.471,2.324,3.471h1.894c1.829,0.028,3.765-1.551,4.31-3.444l0.62-2.157h5.3l-0.61,2.131
		c-0.536,1.92,0.478,3.471,2.324,3.471h1.902c1.826,0.028,3.767-1.551,4.312-3.444l0.617-2.157h5.3l-0.61,2.131
		c-0.544,1.92,0.479,3.471,2.327,3.471h1.901c1.819,0.028,3.768-1.551,4.302-3.444l0.628-2.157h5.292
		c2.464,0,4.494-2.015,4.494-4.489v-22.208C1265.456,596.887,1264.984,595.835,1264.236,595.04z M1169.633,348.072
		c3.252-6.17,5.865-12.626,7.723-19.319c1.896-6.667,3.032-13.559,3.655-20.53c0.55-6.982,0.606-14.04-0.039-21.169
		c2.41,6.782,3.321,14.059,3.397,21.297c0.091,7.253-0.923,14.54-2.843,21.58c-2.034,7.014-4.979,13.782-8.993,19.871
		c-3.969,6.092-8.89,11.537-14.583,15.903C1162.361,360.06,1166.351,354.236,1169.633,348.072z M1029.282,294.083
		c2.365-16.312,8.66-28.898,14.087-28.114c5.4,0.779,7.876,14.643,5.502,30.949c-2.345,16.315-8.657,28.899-14.066,28.122
		C1029.394,324.256,1026.922,310.396,1029.282,294.083z M1032.588,336.694c0.516-3.841,3.452-4.479,3.452-4.479
		s5.401-1.84,5.19,5.18c-0.565,18.365-19.804,30.92-19.804,30.92C1035.157,352.868,1032.091,340.529,1032.588,336.694z
		 M175.894,349.802c-4.015-6.089-6.96-12.857-8.98-19.871c-1.924-7.04-2.937-14.327-2.853-21.58
		c0.074-7.238,0.997-14.515,3.396-21.297c-0.637,7.129-0.581,14.187-0.027,21.169c0.615,6.972,1.746,13.863,3.657,20.53
		c1.846,6.693,4.468,13.149,7.717,19.319c3.281,6.164,7.274,11.987,11.677,17.633C184.788,361.339,179.868,355.894,175.894,349.802z
		 M299.552,296.918c-2.364-16.307,0.111-30.17,5.516-30.949c5.422-0.784,11.724,11.803,14.086,28.114
		c2.358,16.312-0.11,30.173-5.528,30.957C308.221,325.817,301.905,313.233,299.552,296.918z M307.208,337.396
		c-0.212-7.02,5.185-5.18,5.185-5.18s2.93,0.638,3.452,4.479c0.503,3.835-2.562,16.174,11.155,31.621
		C327,368.315,307.767,355.761,307.208,337.396z M345.508,385.934c7.908,3.663,15.299,8.345,22.362,13.433
		c7.085,5.094,13.758,10.758,20.036,16.825c6.239,6.136,12.067,12.678,17.208,19.76c5.154,7.053,9.664,14.601,13.038,22.625
		c-4.961-7.145-10.153-13.988-15.697-20.536c-5.578-6.511-11.427-12.784-17.576-18.737c-6.102-6.019-12.514-11.711-19.073-17.276
		C359.213,396.503,352.475,391.126,345.508,385.934z M98.92,621.85c-0.867,0-1.584-0.712-1.584-1.579v-19.293l6.028,20.872H98.92z
		 M110.178,627.396h-1.899c-0.253,0-0.534-0.212-0.618-0.479l-0.886-3.046l-0.577-2.021l-7.316-25.348l-0.365-1.274l-1.098-3.804
		c-0.083-0.279,0.074-0.479,0.351-0.479h1.879c0.271,0,0.54,0.2,0.618,0.479l0.623,2.16l0.379,1.311l8.364,28.977l0.258,0.889
		l0.618,2.157C110.585,627.185,110.455,627.396,110.178,627.396z M111.903,621.85l-7.316-25.369h5.304l7.32,25.369H111.903z
		 M124.023,627.396h-1.901c-0.25,0-0.539-0.212-0.613-0.479l-0.886-3.046l-0.579-2.021l-7.321-25.369l-0.459-1.586l-1.003-3.471
		c-0.078-0.279,0.081-0.479,0.348-0.479h1.888c0.271,0,0.535,0.2,0.613,0.479l0.628,2.16l0.373,1.311l8.359,28.977l0.265,0.889
		l0.613,2.157C124.43,627.185,124.301,627.396,124.023,627.396z M125.746,621.85l-7.316-25.369h5.299l7.326,25.369H125.746z
		 M137.871,627.396h-1.901c-0.255,0-0.542-0.212-0.623-0.479l-0.879-3.046l-0.585-2.021l-7.312-25.369l-0.47-1.586l-0.993-3.471
		c-0.083-0.279,0.069-0.479,0.341-0.479h1.889c0.267,0,0.534,0.2,0.617,0.479l0.619,2.16l0.383,1.311l8.359,28.977l0.263,0.889
		l0.619,2.157C138.277,627.185,138.139,627.396,137.871,627.396z M139.588,621.85l-7.32-25.369h5.312l7.311,25.369H139.588z
		 M151.712,627.396h-1.896c-0.259,0-0.544-0.212-0.628-0.479l-0.878-3.046l-0.58-2.021l-7.317-25.369l-0.46-1.586l-1.001-3.471
		c-0.08-0.279,0.081-0.479,0.345-0.479h1.878c0.277,0,0.55,0.2,0.623,0.479l0.623,2.16l0.379,1.311l8.358,28.977l0.265,0.889
		l0.623,2.157C152.118,627.185,151.977,627.396,151.712,627.396z M156.989,621.85h-3.55l-7.324-25.369h5.302l5.572,19.332V621.85z
		 M156.989,605.972l-2.732-9.491l-0.458-1.586l-1.002-3.471c-0.081-0.279,0.08-0.479,0.348-0.479h1.882
		c0.272,0,0.535,0.2,0.619,0.479l0.623,2.16l0.378,1.311l0.343,1.2V605.972z M262.829,723.467h-66.059v-3.13h66.059V723.467z
		 M262.829,716.932h-66.059v-3.063h66.059V716.932z M262.829,710.674h-66.059v-3.194h66.059V710.674z M262.829,704.416h-66.059
		v-3.327h66.059V704.416z M262.829,698.155h-66.059v-3.535h66.059V698.155z M262.829,691.897h-66.059v-3.677h66.059V691.897z
		 M262.829,685.639h-66.059v-3.806h66.059V685.639z M262.829,679.381h-66.059v-4.007h66.059V679.381z M262.829,673.12h-66.059
		l15.512-3.059v-1.086h35.033v0.747l15.514,2.726V673.12z M247.315,636.869v5.031h-35.033v-5.031H247.315z M212.283,635.642v-5.169
		h35.033v5.169H212.283z M247.315,643.268v4.891h-35.033v-4.891H247.315z M247.315,649.729v4.689h-35.033v-4.689H247.315z
		 M247.315,656.115v4.562h-35.033v-4.562H247.315z M247.315,662.579v4.356h-35.033v-4.356H247.315z M321.671,573.812h-34.959
		l-3.749-36.741h-35.647v40.824h25.917v51.486h-60.95V539.11l-15.512-2.725v-51.014c0,0,0,0,124.9,0V573.812z M1150.924,635.642
		c0.211,1.976,0.417,4.016,0.472,6.193v0.065h-40.399v-0.065c-0.479-0.62-0.958-1.228-1.503-1.771
		c-0.138-0.065-0.192-0.203-0.339-0.266c-0.474-0.484-0.951-0.892-1.498-1.295c-0.737-0.62-1.623-1.165-2.512-1.634h45.853
		C1150.997,636.452,1150.924,636.049,1150.924,635.642h-48.363c-0.683-0.278-1.357-0.612-2.123-0.812
		c-0.607-0.278-1.22-0.479-1.827-0.617c-1.701-0.545-3.47-1.081-5.439-1.496c-0.69-0.205-1.431-0.341-2.168-0.474
		c-2.796-0.607-5.786-1.162-8.915-1.77h68.15C1150.518,632.106,1150.718,633.868,1150.924,635.642z M1048.679,641.9h-32.244v-0.406
		h32.244l0.675,6.664h-32.919v-4.891h32.374L1048.679,641.9z M1049.575,649.729l0.469,4.689h-33.609v-4.689H1049.575z
		 M1050.25,656.115l0.469,4.562h-34.284v-4.562H1050.25z M1050.922,662.579l0.479,4.356h-34.967v-4.356H1050.922z M943.312,435.951
		c5.143-7.082,10.977-13.624,17.217-19.76c6.275-6.067,12.94-11.731,20.032-16.825c7.071-5.088,14.454-9.77,22.356-13.433
		c-6.961,5.192-13.699,10.569-20.291,16.093c-6.56,5.565-12.979,11.258-19.078,17.276c-6.157,5.953-11.993,12.227-17.568,18.737
		c-5.539,6.548-10.742,13.392-15.702,20.536C933.659,450.552,938.162,443.004,943.312,435.951z M808.271,577.895v51.486h-61.425
		V539.11l-15.52-2.381v-51.357h125.37v88.772h-35.024l-3.676-37.074h-36.194v40.824H808.271z M746.847,660.677v-4.562h34.956v4.562
		H746.847z M781.803,662.579v4.356h-34.956v-4.356H781.803z M746.847,654.419v-4.689h34.956v4.689H746.847z M746.847,648.158v-4.891
		h34.956v4.891H746.847z M746.847,641.9v-5.031h34.956v5.031H746.847z M746.847,635.642v-5.169h34.956v5.169H746.847z
		 M502.651,350.325c-0.327-0.188-0.591-0.455-0.784-0.833c-0.209-0.384-0.3-0.931-0.3-1.662v-2.33h17.655
		c0.406,0,0.792,0.151,1.17,0.472c0.386,0.3,0.566,0.595,0.566,0.886v6.123h-2.166c-0.761,0-1.361-0.188-1.785-0.542
		c-0.438-0.359-0.738-0.711-0.924-1.029c-0.18-0.438-0.565-0.651-1.145-0.651h-4.496c-0.177,0-0.344,0.089-0.481,0.248
		c-0.144,0.164-0.217,0.323-0.217,0.511v10.238c0,0.509,0.25,0.759,0.759,0.759h6.285c0.181,0,0.365,0.065,0.577,0.19
		c0.19,0.117,0.288,0.328,0.288,0.617v3.793c0,0.509-0.268,0.759-0.81,0.759h-6.341c-0.509,0-0.759,0.25-0.759,0.758v11.484
		c0,0.25,0.088,0.453,0.265,0.597c0.188,0.144,0.361,0.217,0.549,0.217h4.714c0.354,0,0.593-0.217,0.701-0.649
		c0.184-0.789,0.531-1.331,1.062-1.626c0.521-0.291,1.188-0.435,2.024-0.435h1.899v6.448c0,0.401-0.133,0.725-0.404,0.975
		c-0.27,0.242-0.603,0.378-1.005,0.378h-3.361h-11.375h-3.246v-2.168c0-0.789,0.091-1.394,0.3-1.806
		c0.193-0.425,0.481-0.717,0.839-0.898c0.177-0.073,0.344-0.219,0.487-0.436c0.138-0.219,0.211-0.458,0.211-0.701v-28.439
		C503.404,350.998,503.162,350.57,502.651,350.325z M531.557,380.443c0.7,0.433,1.518,0.646,2.454,0.646
		c0.472,0,0.924-0.073,1.354-0.214c0.441-0.141,0.815-0.341,1.143-0.56c0.323-0.243,0.573-0.49,0.757-0.764
		c0.18-0.271,0.267-0.537,0.267-0.795v-5.847c0-1.19-0.312-2.178-0.937-2.943c-0.646-0.779-1.435-1.465-2.381-2.062
		c-0.97-0.594-1.993-1.17-3.091-1.711c-1.11-0.537-2.139-1.204-3.092-1.973c-0.962-0.784-1.758-1.725-2.375-2.819
		c-0.646-1.107-0.966-2.501-0.966-4.199l0.057-4.008c0-1.44,0.246-2.681,0.7-3.704c0.474-1.026,1.125-1.89,1.958-2.549
		c0.834-0.672,1.809-1.161,2.926-1.461c1.115-0.315,2.351-0.469,3.681-0.469c1.332,0,2.583,0.174,3.722,0.523
		c1.135,0.331,2.121,0.844,2.974,1.519c0.851,0.656,1.51,1.514,1.973,2.543c0.461,1.029,0.701,2.22,0.701,3.598v5.089h-3.193
		c-0.896,0-1.663-0.354-2.271-1.081c-0.619-0.728-0.924-1.517-0.924-2.384v-1.681c0-0.756-0.323-1.342-0.979-1.756
		c-0.649-0.42-1.33-0.626-2.06-0.626c-0.755,0-1.412,0.214-1.964,0.651c-0.565,0.43-0.854,0.92-0.854,1.459v4.769
		c0,0.727,0.322,1.386,0.958,1.979c0.625,0.6,1.413,1.196,2.354,1.787c0.944,0.603,1.969,1.217,3.082,1.866
		c1.114,0.65,2.148,1.388,3.09,2.222c0.94,0.831,1.725,1.777,2.363,2.854c0.621,1.055,0.944,2.315,0.944,3.757v6.229
		c0,1.375-0.273,2.576-0.815,3.603c-0.542,1.032-1.264,1.876-2.17,2.549c-0.892,0.659-1.946,1.159-3.137,1.482
		c-1.191,0.325-2.463,0.489-3.795,0.489c-1.33,0-2.601-0.164-3.791-0.489c-1.19-0.323-2.229-0.823-3.106-1.482
		c-0.885-0.673-1.598-1.517-2.114-2.549c-0.528-1.026-0.791-2.228-0.791-3.603v-5.151h3.353c0.979,0,1.719,0.305,2.204,0.899
		c0.493,0.599,0.722,1.303,0.722,2.139v2.704C530.486,379.498,530.849,380.011,531.557,380.443z M825.162,379.956
		c0.156,0.211,0.297,0.378,0.391,0.487l0.117,0.05c0.25,0.188,0.511,0.469,0.756,0.847c0.25,0.381,0.38,0.889,0.38,1.542v3.138
		h-1.899h-6.498h-1.737v-3.138c0-0.617,0.146-1.106,0.433-1.464c0.297-0.359,0.565-0.675,0.82-0.925
		c0.178-0.177,0.297-0.344,0.352-0.506c0.055-0.161,0.094-0.31,0.133-0.411v-23.943c0-0.362-0.244-0.542-0.706-0.542h-0.755
		c-0.219,0-0.425,0-0.618,0c-0.213,0-0.396-0.023-0.573-0.055c-0.322-0.031-0.747-0.404-1.263-1.084
		c-0.534-0.68-0.795-1.659-0.795-2.923v-1.081c1.162-0.078,2.196-0.342,3.137-0.79c0.943-0.45,1.626-1.198,2.059-2.246
		c0.083-0.219,0.352-0.521,0.812-0.922c0.472-0.404,1.006-0.597,1.568-0.597h2.392h1.24v2.437v31.527
		C824.906,379.54,824.995,379.737,825.162,379.956z M831.459,378.276V353.14c0-1.379,0.239-2.569,0.709-3.596
		c0.461-1.031,1.117-1.889,1.93-2.548c0.813-0.67,1.774-1.178,2.897-1.514c1.107-0.347,2.348-0.521,3.677-0.521
		c1.331,0,2.576,0.175,3.718,0.521c1.136,0.336,2.115,0.844,2.928,1.514c0.806,0.659,1.438,1.517,1.923,2.548
		c0.459,1.026,0.701,2.217,0.701,3.596v25.137c0,1.373-0.242,2.579-0.701,3.608c-0.484,1.028-1.117,1.884-1.923,2.566
		c-0.812,0.685-1.792,1.19-2.928,1.514c-1.142,0.325-2.387,0.489-3.718,0.489c-1.329,0-2.569-0.164-3.677-0.489
		c-1.123-0.323-2.084-0.829-2.897-1.514c-0.812-0.683-1.469-1.538-1.93-2.566C831.698,380.855,831.459,379.649,831.459,378.276z
		 M645.967,402.926c7.027,8.345,17.431,13.565,28.201,13.464c10.643,0.156,21.168-5.013,28.2-13.326
		c7.154-8.306,10.859-19.574,10.442-31.126c1.357,5.638,1.365,11.646,0.211,17.466c-1.228,5.812-3.671,11.456-7.292,16.312
		c-3.562,4.908-8.346,8.952-13.791,11.823c-5.479,2.842-11.611,4.312-17.852,4.341c-6.107-0.053-12.326-1.566-17.758-4.417
		c-5.422-2.899-10.195-6.964-13.746-11.886c-7.238-9.757-9.679-22.567-6.92-33.819C635.202,383.312,638.854,394.588,645.967,402.926
		z M640.631,378.653c0-18.55,15.028-33.591,33.592-33.591c18.545,0,33.575,15.041,33.575,33.591
		c0,18.543-15.03,33.589-33.575,33.589C655.659,412.242,640.631,397.196,640.631,378.653z M728.344,437.813
		c1.737-1.636,3.361-3.379,4.914-5.174l30.334,32.322h-6.323L728.344,437.813z M774.725,379.737
		c0.341,0.219,0.708,0.328,1.107,0.328h5.307c0.287,0,0.529-0.166,0.711-0.489c0.186-0.359,0.464-0.748,0.86-1.162
		c0.394-0.42,1.006-0.628,1.845-0.628h1.837v6.881c0,0.078-0.011,0.188-0.019,0.328c-0.026,0.141-0.075,0.3-0.164,0.461
		c-0.094,0.162-0.24,0.292-0.436,0.404c-0.205,0.104-0.461,0.159-0.784,0.159h-3.249h-0.111h-11.271
		c-0.508,0-0.94-0.097-1.292-0.295c-0.359-0.198-0.675-0.438-0.894-0.729c-0.245-0.294-0.406-0.609-0.519-0.945
		c-0.112-0.345-0.167-0.683-0.167-1.009v-7.69c0-1.191,0.222-2.254,0.657-3.194c0.435-0.946,0.984-1.809,1.681-2.604
		c0.672-0.792,1.436-1.539,2.269-2.222c0.842-0.678,1.642-1.376,2.437-2.054c0.841-0.69,1.561-1.258,2.206-1.703
		c0.628-0.459,1.154-0.881,1.59-1.277c0.433-0.403,0.773-0.836,1.014-1.303c0.221-0.469,0.344-1.086,0.344-1.842v-6.284
		c0-0.505-0.123-0.92-0.344-1.242c-0.24-0.328-0.534-0.571-0.847-0.759c-0.334-0.188-0.667-0.302-1.009-0.38
		c-0.344-0.076-0.617-0.109-0.839-0.109c-0.211,0-0.479,0.055-0.812,0.161c-0.323,0.109-0.628,0.261-0.923,0.467
		c-0.297,0.195-0.536,0.442-0.758,0.755c-0.211,0.308-0.323,0.678-0.323,1.107v2.869v3.848h-3.408c-0.653,0-1.161-0.128-1.547-0.378
		c-0.373-0.25-0.686-0.544-0.896-0.867s-0.352-0.636-0.436-0.94c-0.072-0.315-0.099-0.545-0.099-0.686v-0.977v-2.541
		c0-1.378,0.229-2.568,0.701-3.598c0.461-1.029,1.115-1.896,1.946-2.582c0.831-0.68,1.811-1.198,2.918-1.534
		c1.128-0.347,2.342-0.521,3.637-0.521c1.303,0,2.53,0.175,3.71,0.521c1.181,0.336,2.204,0.854,3.093,1.534
		c0.875,0.686,1.576,1.553,2.076,2.582c0.519,1.029,0.769,2.22,0.769,3.598v5.956c0,1.193-0.195,2.22-0.547,3.09
		c-0.359,0.868-0.828,1.654-1.401,2.355c-0.573,0.709-1.267,1.368-2.03,2.012c-0.778,0.625-1.57,1.284-2.365,1.967
		c-0.829,0.727-1.589,1.345-2.29,1.879c-0.709,0.516-1.318,1.026-1.826,1.537c-0.517,0.511-0.896,1.039-1.201,1.604
		c-0.284,0.553-0.422,1.212-0.422,1.967v3.145C774.209,379.175,774.373,379.521,774.725,379.737z M790.565,378.276V353.14
		c0-1.379,0.239-2.569,0.7-3.596c0.472-1.031,1.128-1.889,1.941-2.548c0.8-0.67,1.769-1.178,2.887-1.514
		c1.117-0.347,2.342-0.521,3.684-0.521c1.329,0,2.574,0.175,3.71,0.521c1.146,0.336,2.113,0.844,2.937,1.514
		c0.803,0.659,1.44,1.517,1.902,2.548c0.469,1.026,0.708,2.217,0.708,3.596v25.137c0,1.373-0.239,2.579-0.708,3.608
		c-0.462,1.028-1.1,1.884-1.902,2.566c-0.823,0.685-1.79,1.19-2.937,1.514c-1.136,0.325-2.381,0.489-3.71,0.489
		c-1.342,0-2.566-0.164-3.684-0.489c-1.118-0.323-2.087-0.829-2.887-1.514c-0.813-0.683-1.47-1.538-1.941-2.566
		C790.805,380.855,790.565,379.649,790.565,378.276z M733.322,324.585c0.896,1.028,1.754,2.068,2.593,3.131
		c3.546,4.542,6.648,9.424,9.085,14.614c2.446,5.185,4.319,10.616,5.557,16.166c2.416,11.112,2.361,22.688-0.344,33.497
		c1.103-11.07,0.131-22.216-3.126-32.588c-3.16-10.388-8.569-19.954-15.567-28.047c-14.03-16.211-34.854-26.033-56.064-26.174
		c-21.255-0.564-42.366,8.549-56.915,24.285c-7.281,7.842-13.006,17.234-16.513,27.521c-3.605,10.255-4.95,21.358-4.207,32.463
		c-2.332-10.896-2.017-22.466,0.792-33.492c2.842-11.013,8.209-21.476,15.66-30.262c0.292-0.356,0.612-0.683,0.917-1.031
		l-77.073-82.118l81.977,76.934c6.3-6.003,13.663-10.933,21.604-14.59c10.567-4.82,22.273-7.16,33.856-7.024
		c11.648,0.224,23.227,2.993,33.636,8.134c7.016,3.538,13.519,8.079,19.175,13.454l81.965-76.907L733.322,324.585z M577.401,380.657
		v4.5c0,0.289-0.325,0.516-0.974,0.68c-0.649,0.167-1.407,0.239-2.272,0.239c-0.87,0-1.642-0.067-2.298-0.192
		c-0.672-0.12-1.008-0.328-1.008-0.62v-0.106v-4.391c0-0.323,0.349-0.555,1.026-0.67c0.688-0.13,1.44-0.197,2.279-0.197
		c0.865,0,1.623,0.08,2.272,0.216C577.076,380.254,577.401,380.443,577.401,380.657z M560.751,380.876
		c0.086,0.141,0.219,0.271,0.406,0.375c0.286,0.222,0.568,0.524,0.839,0.923c0.271,0.403,0.398,0.901,0.398,1.516v2.33h-9.961v-2.33
		c0-0.614,0.135-1.112,0.434-1.516c0.287-0.398,0.575-0.701,0.867-0.923c0.178-0.104,0.312-0.234,0.402-0.375
		c0.094-0.141,0.136-0.403,0.136-0.761v-28.544c0-0.292-0.087-0.501-0.277-0.62c-0.173-0.131-0.351-0.193-0.534-0.193h-0.924
		c-0.139,0-0.364,0.062-0.673,0.193c-0.31,0.119-0.542,0.328-0.685,0.62c-0.212,0.508-0.413,0.886-0.614,1.136
		c-0.205,0.245-0.76,0.378-1.656,0.378h-2.434v-2.979v-2.115c0-0.836,0.14-1.446,0.407-1.86c0.273-0.422,0.863-0.631,1.805-0.631
		h17.279c0.875,0,1.498,0.183,1.881,0.545c0.383,0.354,0.558,1.011,0.558,1.946v2.387v2.654h-2.376
		c-1.058,0-1.818-0.505-2.332-1.516c-0.185-0.357-0.398-0.573-0.648-0.649c-0.248-0.078-0.469-0.109-0.654-0.109h-1.026
		c-0.211,0-0.398,0.089-0.561,0.248c-0.166,0.164-0.26,0.378-0.26,0.672v28.438C560.587,380.473,560.657,380.735,560.751,380.876z
		 M615.111,432.715c1.568,1.793,3.231,3.497,4.956,5.128l-28.899,27.119h-6.328L615.111,432.715z M862.569,443.438
		c-2.373,7.353-5.367,14.494-8.605,21.523h-5.815c3.88-7.426,7.329-15.085,10.2-22.982c9.997-27.072,13.785-56.466,11.521-85.55
		C874.135,385.308,871.605,415.343,862.569,443.438z M517.008,193.443c14.118-12.329,29.715-23.042,46.405-31.729
		c16.662-8.759,34.42-15.402,52.707-19.993c18.295-4.547,37.134-6.85,55.992-7.061c18.839-0.123,37.715,1.876,56.104,6.091
		c18.337,4.273,36.223,10.602,53.024,19.071c16.839,8.4,32.625,18.845,46.959,30.929c14.244,12.186,27.206,25.871,38.117,41.006
		c-23.634-28.857-53.543-52.24-86.941-68.081c-33.396-15.841-70.343-23.945-107.224-23.531
		c-36.882,0.203-73.675,8.965-106.802,25.373c-33.12,16.409-62.63,40.303-85.773,69.577
		C490.24,219.771,502.956,205.868,517.008,193.443z M487.551,450.272c-5.089-13.912-8.605-28.361-10.438-43.001
		c-3.572-29.274-0.663-59.275,8.96-86.853c-7.665,28.156-9.228,57.745-4.507,86.214c3.299,20.374,9.942,40.094,19.36,58.329h-7.193
		C491.487,460.142,489.362,455.262,487.551,450.272z M396.096,723.467h-66.062v-3.13h66.062V723.467z M396.096,716.932h-66.062
		v-3.063h66.062V716.932z M396.096,710.674h-66.062v-3.194h66.062V710.674z M396.096,704.416h-66.062v-3.327h66.062V704.416z
		 M396.096,698.155h-66.062v-3.535h66.062V698.155z M396.096,691.897h-66.062v-3.677h66.062V691.897z M396.096,685.639h-66.062
		v-3.806h66.062V685.639z M396.096,679.381h-66.062v-4.007h66.062V679.381z M396.096,673.12h-66.062l15.586-3.059v-1.086h34.964
		v0.747l15.513,2.726V673.12z M380.583,636.869v5.031h-34.964v-5.031H380.583z M345.619,635.642v-5.169h34.964v5.169H345.619z
		 M380.583,643.268v4.891h-34.964v-4.891H380.583z M380.583,649.729v4.689h-34.964v-4.689H380.583z M380.583,656.115v4.562h-34.964
		v-4.562H380.583z M380.583,662.579v4.356h-34.964v-4.356H380.583z M396.096,535.703c0,0,0,0-15.513,3.407v90.271h-34.964V539.11
		l-15.586-2.725v-51.014h66.062V535.703z M510.851,723.467h-65.569v-3.13h65.569V723.467z M510.851,716.932h-65.569v-3.063h65.569
		V716.932z M510.851,710.674h-65.569v-3.194h65.569V710.674z M510.851,704.416h-65.569v-3.327h65.569V704.416z M510.851,698.155
		h-65.569v-3.535h65.569V698.155z M510.851,691.897h-65.569v-3.677h65.569V691.897z M510.851,685.639h-65.569v-3.806h65.569V685.639
		z M510.851,679.381h-65.569v-4.007h65.569V679.381z M510.851,673.12h-65.569v-1.016l15.301-2.723v-0.406h34.963v0.747l15.306,2.382
		V673.12z M495.545,636.869v5.031h-34.963v-5.031H495.545z M460.582,635.642v-5.169h34.963v5.169H460.582z M495.545,643.268v4.891
		h-34.963v-4.891H495.545z M495.545,649.729v4.689h-34.963v-4.689H495.545z M495.545,656.115v4.562h-34.963v-4.562H495.545z
		 M495.545,662.579v4.356h-34.963v-4.356H495.545z M551.201,573.46h-34.564l-3.947-36.73h-17.145v92.651h-34.963v-92.651
		c0,0,0,0-17.411,0l-3.674,36.73h-35.038v-87.752h146.742V573.46z M625.145,723.467h-65.584v-3.13h65.584V723.467z M625.145,716.932
		h-65.584v-3.063h65.584V716.932z M625.145,710.674h-65.584v-3.194h65.584V710.674z M625.145,704.416h-65.584v-3.327h65.584V704.416
		z M625.145,698.155h-65.584v-3.535h65.584V698.155z M625.145,691.897h-65.584v-3.677h65.584V691.897z M625.145,685.639h-65.584
		v-3.806h65.584V685.639z M625.145,679.381h-65.584v-4.007h65.584V679.381z M625.145,673.12h-63.883l13.604-2.715v-1.43h34.975
		v1.086l15.304,2.726V673.12z M609.841,636.869v5.031h-34.975v-5.031H609.841z M574.866,635.642v-5.169h34.975v5.169H574.866z
		 M609.841,643.268v4.891h-34.975v-4.891H609.841z M609.841,649.729v4.689h-34.975v-4.689H609.841z M609.841,656.115v4.562h-34.975
		v-4.562H609.841z M609.841,662.579v4.356h-34.975v-4.356H609.841z M609.841,559.862v69.519h-34.975V539.11l-15.306-2.381v-50.68
		h71.84l34.818,143.331h-39.31L609.841,559.862z M627.188,630.473H666.5l1.225,5.169h-39.312L627.188,630.473z M628.743,636.869
		h39.322l1.232,5.031h-39.32L628.743,636.869z M630.312,643.268h39.315l1.167,4.891h-39.325L630.312,643.268z M631.88,649.729
		h39.317l1.089,4.689h-39.252L631.88,649.729z M707.67,723.467h-57.698l-0.826-3.13h58.524V723.467z M707.67,716.932h-59.324
		l-0.75-3.063h60.074V716.932z M707.67,710.674h-60.896l-0.745-3.194h61.641V710.674z M707.67,704.416h-62.388l-0.821-3.327h63.209
		V704.416z M707.67,698.155h-63.951l-0.828-3.471v-0.064h64.779V698.155z M707.67,691.897h-65.452l-0.88-3.677h66.332V691.897z
		 M707.67,685.639h-67.025l-0.94-3.806h67.966V685.639z M707.67,679.381h-68.506l-1.031-4.007h69.537V679.381z M707.67,673.12
		h-70.079l-1.021-4.145h71.101V673.12z M707.67,666.936h-71.582l-1.084-4.356h72.666V666.936z M707.67,660.677h-73.13l-1.097-4.562
		h74.227V660.677z M707.67,654.419h-35.039v-4.689h35.039V654.419z M707.67,648.158h-35.039v-4.891h35.039V648.158z M707.67,641.9
		h-35.039v-5.031h35.039V641.9z M707.67,635.642h-35.039v-5.169h35.039V635.642z M722.974,535.372l-15.304,3.056v90.953h-35.039
		v-90.953c0,0,0,0-15.239-2.371v-50.685h65.582V535.372z M856.697,723.467c0,0,0,0-125.37,0v-3.13h125.37V723.467z M856.697,716.932
		h-125.37v-3.063h125.37V716.932z M856.697,710.674h-125.37v-3.194h125.37V710.674z M856.697,704.416h-125.37v-3.327h125.37V704.416
		z M856.697,698.155h-125.37v-3.535h125.37V698.155z M856.697,691.897h-125.37v-3.677h125.37V691.897z M856.697,685.639h-125.37
		v-3.806h125.37V685.639z M856.697,679.381h-125.37v-4.007h125.37V679.381z M856.697,673.12h-125.37l15.52-3.059v-1.086h34.956
		v3.129h36.194l0.278-3.129h38.422V673.12z M856.697,666.936h-38.153l0.414-4.356h37.739V666.936z M856.697,660.677h-37.544
		l0.417-4.562h37.127V660.677z M856.697,654.419h-36.926l0.472-4.689h36.454V654.419z M856.697,648.158h-36.324l0.479-4.891h35.845
		V648.158z M856.697,641.9H820.99l0.618-6.131l-0.084,1.1h35.173V641.9z M856.697,635.642h-35.089l0.064-0.612h35.024V635.642z
		 M828.679,614.622v-20.066h20.283c2.371,7.751,5.575,14.415,9.525,20.066H828.679z M866.64,581.289
		c-0.196-1.014-0.415-2.043-0.548-3.129c-0.339-2.319-0.606-4.766-0.734-7.287c-0.148-1.152-0.222-2.304-0.222-3.533
		c-0.058-1.22-0.058-2.446-0.058-3.739c0-41.151,16.451-77.893,60.742-77.893h74.365v81.973H967.73l-2.512-25.504c0,0,0,0-51.031,0
		c-6.259,0-10.614,8.16-10.614,15.305c0,0,0,8.842,3.684,12.581c10.052,10.135,31.285,9.858,51.352,14.559
		c1.303,0.266,2.532,0.545,3.747,0.951c1.222,0.339,2.441,0.683,3.676,1.089c3.674,1.089,7.209,2.509,10.606,4.356
		c4.497,2.243,8.704,5.234,12.381,9.118c2.788,2.78,5.242,6.115,7.345,10.13c2.087,3.83,3.768,8.319,5.062,13.392l0,0
		c0,0.039,0.008,0.083,0.019,0.133c0.443,1.782,0.839,3.635,1.173,5.591h-73.859c-0.084,0-0.084,0-0.149,0
		c-4.079-0.745-8.29-1.568-12.519-2.509c-2.24-0.555-4.483-1.089-6.737-1.774c-0.398-0.072-0.803-0.2-1.217-0.338
		c-1.219-0.345-2.514-0.751-3.733-1.23c-0.701-0.203-1.436-0.472-2.113-0.739c-1.568-0.553-3.071-1.162-4.496-1.845
		c-1.217-0.479-2.437-1.089-3.599-1.699c-2.66-1.365-5.18-2.915-7.561-4.689c-0.607-0.406-1.22-0.886-1.764-1.365
		c-1.899-1.422-3.674-3.063-5.297-4.827c-0.961-1.024-1.837-2.113-2.733-3.26c-2.24-2.937-4.21-6.203-5.841-9.877
		c-0.417-0.811-0.823-1.701-1.157-2.652c-0.961-2.443-1.773-5.028-2.454-7.816C867.121,583.598,866.832,582.451,866.64,581.289z
		 M901.393,643.268l0.555,4.891h-32.935v-4.891H901.393z M869.013,641.9v-0.406h32.179l0.073,0.406H869.013z M902.153,649.729
		l0.461,4.689h-33.602v-4.689H902.153z M902.833,656.115l0.481,4.562h-34.302v-4.562H902.833z M903.511,662.579l0.469,4.356h-34.967
		v-4.356H903.511z M965.883,720.543c-1.409,0.401-2.843,0.818-4.414,1.087c-0.138,0.064-0.2,0.064-0.328,0.064
		c-1.701,0.407-3.554,0.759-5.396,0.951c-0.128,0-0.19,0.073-0.328,0.073c-1.701,0.206-3.4,0.406-5.244,0.472
		c-0.258,0.072-0.548,0.072-0.813,0.072c-1.901,0.142-3.939,0.204-5.992,0.204h-74.354v-3.13h97.425
		C966.232,720.402,966.086,720.476,965.883,720.543z M979.157,714.28c0,0.01-0.019,0.01-0.019,0.01
		c-1.308,0.886-2.646,1.709-4.062,2.446c-0.128,0.062-0.239,0.141-0.339,0.195H869.013v-3.063H979.84
		C979.629,714.014,979.36,714.145,979.157,714.28z M987.041,707.887c-0.94,1.023-1.967,1.975-2.991,2.787H869.013v-3.194h118.37
		C987.255,707.615,987.189,707.753,987.041,707.887z M991.134,702.79c-0.344,0.534-0.758,1.089-1.229,1.626H869.013v-3.327h123.272
		C991.879,701.701,991.527,702.235,991.134,702.79z M995.084,696.392c-0.352,0.609-0.617,1.227-0.962,1.764H869.013v-3.535h126.816
		c0.406-0.748,0.739-1.431,1.089-2.243C996.309,693.744,995.701,695.1,995.084,696.392z M997.788,690.068
		c-0.195,0.609-0.464,1.295-0.675,1.829H869.013v-3.677h129.466C998.268,688.844,998.064,689.451,997.788,690.068z M999.909,683.737
		c-0.136,0.683-0.35,1.289-0.553,1.901H869.013v-3.806h131.368c0.064-0.404,0.195-0.821,0.344-1.217
		C1000.508,681.694,1000.253,682.719,999.909,683.737z M1001.053,679.381h-132.04v-4.007h132.79
		C1001.537,676.729,1001.342,678.089,1001.053,679.381z M1003.105,666.936c-0.148,1.42-0.344,2.787-0.539,4.155
		c-0.073,0.672-0.219,1.357-0.35,2.029H869.013v-4.145h133.814C1002.895,668.303,1002.957,667.618,1003.105,666.936h-46.878
		c0.685-0.065,1.359-0.206,1.982-0.407c0.067,0,0.133,0,0.195-0.072c0.683-0.203,1.22-0.472,1.774-0.813
		c0.607-0.344,1.151-0.747,1.634-1.295c0.479-0.477,0.95-1.086,1.281-1.769h40.407
		C1003.371,663.999,1003.241,665.516,1003.105,666.936z M1003.919,656.253c-0.068,1.498-0.206,2.994-0.261,4.424h-39.602
		c0.072-0.141,0.072-0.278,0.127-0.479c0.131-0.472,0.29-1.089,0.417-1.625c0.196-0.821,0.331-1.634,0.479-2.457h38.839
		C1003.919,656.19,1003.919,656.19,1003.919,656.253z M1004.046,651.965c0,0.818,0,1.642-0.055,2.454h-38.716
		c0.073-1.154,0.128-2.381,0.128-3.749c0,0,0-0.331,0-0.94h38.643c0-0.479,0.084-0.886,0.084-1.293
		C1004.13,649.656,1004.13,650.808,1004.046,651.965z M1004.13,648.158h-38.781c0-0.2,0-0.339-0.073-0.545
		c-0.057-0.544-0.13-1.229-0.26-1.836c-0.146-0.74-0.353-1.496-0.626-2.241c0-0.067-0.075-0.206-0.075-0.269h39.677
		c0-0.416,0-0.888-0.072-1.367h-40.342v-0.065c-0.409-0.62-0.962-1.228-1.495-1.771c-0.472-0.406-0.941-0.878-1.423-1.292
		c-0.414-0.269-0.748-0.545-1.165-0.811c-0.534-0.417-1.151-0.75-1.764-1.092h45.854c0-0.417-0.083-0.82-0.083-1.228h-48.363
		c-0.673-0.278-1.348-0.612-2.103-0.812c-0.623-0.278-1.23-0.479-1.902-0.686c-1.023-0.338-2.181-0.606-3.343-0.956
		c-1.42-0.333-2.918-0.677-4.486-1.019c-2.726-0.606-5.586-1.151-8.566-1.696h68.089c0.278,1.634,0.479,3.396,0.675,5.169
		c0.417,3.672,0.628,7.688,0.628,11.972V648.158z M1014.054,581.289c-0.206-1.014-0.407-2.043-0.537-3.129
		c-0.352-2.319-0.62-4.766-0.758-7.287c-0.128-1.152-0.201-2.304-0.201-3.533c-0.075-1.22-0.075-2.446-0.075-3.739
		c0-41.151,16.471-77.893,60.749-77.893h74.37v81.973h-32.468l-2.512-25.504c0,0,0,0-51.013,0c-6.258,0-10.614,8.16-10.614,15.305
		c0,0,0,8.842,3.674,12.581c2.584,2.657,5.984,4.56,9.86,6.058c0.681,0.275,1.355,0.477,2.049,0.745
		c3.248,1.029,6.867,1.901,10.682,2.652c2.092,0.403,4.207,0.758,6.396,1.086c7.211,1.229,14.824,2.254,22.377,4.018
		c1.217,0.266,2.509,0.617,3.744,0.951c1.219,0.339,2.441,0.683,3.527,1.023c0.065,0.065,0.065,0.065,0.128,0.065
		c3.687,1.162,7.222,2.509,10.619,4.356c4.484,2.308,8.702,5.234,12.389,9.118c2.788,2.78,5.231,6.115,7.348,10.13
		c0.727,1.365,1.401,2.816,2.05,4.33c0,0,0,0.011,0,0.016c1.842,4.268,3.238,9.179,4.189,14.77h-73.942h-0.055
		c-4.088-0.745-8.301-1.568-12.517-2.509c-2.254-0.555-4.562-1.089-6.815-1.774c-0.19-0.072-0.396-0.138-0.673-0.2
		c-1.42-0.406-2.85-0.812-4.207-1.368c-0.758-0.203-1.431-0.472-2.115-0.739c-0.683-0.211-1.35-0.479-2.051-0.818
		c-0.672-0.216-1.354-0.482-2.029-0.823c-1.365-0.534-2.723-1.157-4.008-1.902c-0.7-0.341-1.308-0.683-1.984-1.089
		c-1.899-1.014-3.812-2.243-5.581-3.601c-0.612-0.406-1.22-0.886-1.764-1.365c-1.902-1.422-3.666-3.063-5.308-4.827
		c-0.953-1.024-1.831-2.113-2.715-3.26c-2.254-2.937-4.223-6.203-5.854-9.877c-0.407-0.811-0.824-1.701-1.154-2.652
		c-0.954-2.443-1.765-5.028-2.465-7.816C1014.533,583.598,1014.254,582.451,1014.054,581.289z M1108.748,721.694
		c-1.764,0.407-3.604,0.759-5.578,0.951c-0.073,0-0.203,0.073-0.331,0.073c-1.706,0.206-3.47,0.406-5.317,0.472
		c-0.206,0.072-0.396,0.072-0.675,0.072c-1.967,0.142-3.941,0.204-6.062,0.204h-74.35v-3.13h97.482
		C1112.281,720.882,1110.518,721.288,1108.748,721.694z M1121.272,717.367c0,0,0.01-0.011,0.021-0.011c-0.011,0-0.011,0-0.011,0.011
		H1121.272z M1124.144,715.771c-0.008,0-0.008,0-0.019,0c-0.683,0.406-1.376,0.784-2.076,1.161h-105.614v-3.063h110.822
		C1126.285,714.551,1125.193,715.143,1124.144,715.771z M1134.463,707.887c-0.951,0.958-1.975,1.901-2.988,2.787h-115.04v-3.194
		h118.372C1134.669,707.615,1134.602,707.753,1134.463,707.887z M1138.546,702.79l-1.24,1.626h-120.871v-3.327h123.273
		C1139.358,701.701,1138.952,702.235,1138.546,702.79z M1144.525,691.897c-0.607,1.568-1.348,3.139-2.103,4.562
		c-0.269,0.607-0.618,1.159-0.889,1.696h-125.1v-3.535h126.801C1143.715,693.744,1144.121,692.855,1144.525,691.897h-128.091v-3.677
		H1145.9C1145.486,689.516,1145.083,690.74,1144.525,691.897z M1147.312,683.737c-0.192,0.683-0.322,1.289-0.534,1.901h-130.344
		v-3.806h131.357c0.139-0.404,0.206-0.821,0.354-1.217C1147.931,681.694,1147.664,682.719,1147.312,683.737z M1148.478,679.381
		h-132.043v-4.007h132.78C1148.959,676.729,1148.754,678.089,1148.478,679.381z M1150.518,666.936
		c-0.128,1.42-0.344,2.787-0.545,4.155c-0.127,0.672-0.211,1.357-0.341,2.029h-133.197v-4.145h133.804
		C1150.307,668.303,1150.452,667.618,1150.518,666.936h-47.004c0.062,0,0.139,0,0.201-0.065c0.672,0,1.284-0.141,1.839-0.342
		c0.136,0,0.201,0,0.342-0.072c0.544-0.203,1.089-0.407,1.568-0.751c0.128,0,0.255-0.062,0.406-0.266
		c0.472-0.203,0.951-0.606,1.357-1.092c0.477-0.477,0.873-1.086,1.29-1.769h40.406
		C1150.786,663.999,1150.655,665.516,1150.518,666.936z M1151.341,656.253c-0.075,1.498-0.206,2.994-0.279,4.424h-39.594
		c0.334-0.812,0.545-1.837,0.751-2.86c0.062-0.539,0.211-1.089,0.273-1.701h38.849
		C1151.341,656.19,1151.341,656.19,1151.341,656.253z M1151.469,651.965c0,0.818,0,1.642-0.073,2.454h-38.697
		c0.062-1.154,0.127-2.381,0.127-3.749c0,0,0-0.331,0-0.94h38.644c0-0.479,0.072-0.886,0.072-1.293
		C1151.541,649.656,1151.541,650.808,1151.469,651.965z M1151.541,648.158h-38.78c0-0.2,0-0.339-0.062-0.545
		c-0.076-0.544-0.128-1.229-0.269-1.836c-0.148-0.74-0.344-1.496-0.628-2.241c0-0.067-0.065-0.206-0.065-0.269h39.659v-1.295
		c0.073,1.829,0.146,3.677,0.146,5.641V648.158z M1170.133,625.882c-0.294-1.633-0.583-3.248-0.94-4.807l27.323,2.454
		L1170.133,625.882z M1202.885,596.095l0.345-1.2l0.375-1.311l0.62-2.16c0.083-0.279,0.341-0.479,0.631-0.479h1.881
		c0.266,0,0.433,0.2,0.338,0.479l-1.003,3.471l-0.453,1.586l-2.733,9.491V596.095z M1206.432,621.85h-3.547v-6.037l5.576-19.332
		h5.299L1206.432,621.85z M1212.155,621.85l-0.592,2.021l-0.886,3.046c-0.075,0.268-0.354,0.479-0.62,0.479h-1.899
		c-0.271,0-0.398-0.212-0.333-0.479l0.628-2.157l0.269-0.889l8.35-28.977l0.381-1.311l0.62-2.16
		c0.083-0.279,0.356-0.479,0.617-0.479h1.895c0.266,0,0.432,0.2,0.338,0.479l-1.003,3.471l-0.456,1.586L1212.155,621.85z
		 M1220.294,621.85h-5.307l7.313-25.369h5.307L1220.294,621.85z M1225.99,621.85l-0.579,2.021l-0.889,3.046
		c-0.072,0.268-0.367,0.479-0.625,0.479h-1.896c-0.266,0-0.394-0.212-0.328-0.479l0.628-2.157l0.258-0.889l8.355-28.977l0.386-1.311
		l0.609-2.16c0.083-0.279,0.367-0.479,0.628-0.479h1.881c0.279,0,0.436,0.2,0.352,0.479l-0.998,3.471l-0.461,1.586L1225.99,621.85z
		 M1234.134,621.85h-5.317l7.337-25.369h5.281L1234.134,621.85z M1239.837,621.85l-0.589,2.021l-0.878,3.046
		c-0.072,0.268-0.37,0.479-0.625,0.479h-1.902c-0.26,0-0.391-0.212-0.317-0.479l0.612-2.157l0.266-0.889l8.355-28.977l0.38-1.311
		l0.618-2.16c0.083-0.279,0.349-0.479,0.628-0.479h1.881c0.278,0,0.436,0.2,0.352,0.479l-1.014,3.471l-0.445,1.586L1239.837,621.85z
		 M1247.971,621.85h-5.307l7.321-25.369h5.297L1247.971,621.85z M1253.674,621.85l-0.58,2.021l-0.879,3.046
		c-0.083,0.268-0.367,0.479-0.622,0.479h-1.904c-0.259,0-0.399-0.212-0.331-0.479l0.628-2.157l0.25-0.889l8.371-28.977l0.37-1.311
		l0.628-2.16c0.083-0.279,0.349-0.479,0.628-0.479h1.87c0.279,0,0.433,0.2,0.359,0.479l-1.104,3.804l-0.362,1.274L1253.674,621.85z
		 M1262.535,620.271c0,0.867-0.706,1.579-1.573,1.579h-4.45l6.023-20.872V620.271z"/>
	<path fill="#FFFFFF" d="M549.245,823.007c0,7.873-2.321,12.537-10.427,12.537c-6.655,0-10.311-4.105-10.311-13.313
		c0-4.65,0-33.812,0-38.483c0-9.747,4.773-13.301,9.98-13.301c7.987,0.117,10.098,5.881,10.098,12.868v2.103h11.529
		c0-21.739,0-21.739,0-21.739h-7.65l-0.893,4.221h-0.327c-3.322-3.655-8.316-4.773-13.09-4.773c-13.08,0-21.183,7.438-21.183,20.622
		c0,4.671,0,33.833,0,38.483c0,14.087,9.544,20.635,21.963,20.635c12.424,0,21.847-5.992,21.847-19.738v-4.218h-11.537V823.007z"/>
	<path fill="#FFFFFF" d="M603.247,834.88c-6.313,0-12.529,0-18.845,0v-0.565c1.889-0.662,2.326-1.659,2.326-3.435
		c0-8.203,0-16.299,0-24.506h10.644l2.884,5.881h3.332c0-5.43,0-13.303,0-18.759h-3.332l-2.884,6.12h-10.644
		c0-9.814,0-19.59,0-29.282h15.083l3.108,10.922h5.539v-17.469c-13.525,0-25.947,0-39.472,0v2.892l4.208,2.89
		c0,21.812,0,43.682,0,65.522l-5,3.335v3.21c13.985,0,27.836,0,41.712,0v-17.409h-4.888L603.247,834.88z"/>
	<path fill="#FFFFFF" d="M653.254,767.231l4.227,2.91v35.962c0,5.661,0.442,13.11,0.442,18.769h-0.229l-4.979-21.757l-10.872-34.665
		c-1.222-4.207-2.11-4.663-6.987-4.663c-5.211,0-7.759,0-13.09,0v3.223l4.213,2.907c0,21.75,0,43.617,0,65.403l-4.65,2.882v3.434
		c5.433,0,11.867,0,17.3,0v-3.434l-4.661-2.882c0-16.106,0-32.317,0-48.416l-1.329-11.117l0.326-0.106l18.089,62.188
		c0.667,2.215,2.098,3.768,4.771,3.768h9.525c0-23.879,0-47.635,0-71.494l4.21-2.91v-3.444c-5.43,0-10.872,0-16.305,0V767.231z"/>
	<path fill="#FFFFFF" d="M677.333,763.787l-0.45,19.749h5.325l3.551-12.751h8.312c0,21.197,0,42.429,0,63.623l-4.875,3.46v3.768
		c6.308,0,14.965,0,21.391,0v-3.768l-4.875-3.46c0-21.194,0-42.426,0-63.623c8.105,0,8.105,0,8.105,0l3.768,12.751h5.314
		l-0.44-19.749H677.333z"/>
	<path fill="#FFFFFF" d="M763.269,834.88c-6.323,0-12.526,0-18.857,0v-0.565c1.896-0.662,2.332-1.659,2.332-3.435
		c0-8.203,0-16.299,0-24.506h10.646l2.879,5.881h3.332c0-5.43,0-13.303,0-18.759h-3.332l-2.879,6.12h-10.646
		c0-9.814,0-19.59,0-29.282h15.074l3.11,10.922h5.547v-17.469c-13.529,0-25.957,0-39.479,0v2.892l4.218,2.89
		c0,21.812,0,43.682,0,65.522l-4.984,3.335v3.21c13.957,0,27.823,0,41.687,0v-17.409h-4.872L763.269,834.88z"/>
	<path fill="#FFFFFF" d="M824.812,829.997l-5.224-14.309c-1.201-3.434-2.649-5.541-5.974-7.311
		c7.201-1.451,12.526-6.766,12.526-16.352v-10.108c0-13.569-9.747-18.131-21.729-18.131h-22.516v3.223l4.106,2.882
		c0,21.583,0,43.691,0,65.199l-4.89,3.335v3.21c6.442,0,14.642,0,21.071,0v-3.21l-4.882-3.335c0-7.092,0-18.407,0-25.385
		c6.547,0,8.548,1.548,10.773,7.541c5.419,14.191,5.419,14.191,5.419,14.191c2.214,5.877,2.899,10.869,9.869,10.869
		c2.443,0,5.888-0.339,8.103-1.436v-4.333C827.916,837.315,825.92,832.985,824.812,829.997z M804.301,803.271h-7.09
		c0-12.131,0-20.468,0-32.596c7.201,0,7.201,0,7.201,0c7.642,0,10.198,4.116,10.198,11.242v10.108
		C814.61,799.147,811.721,803.271,804.301,803.271z"/>
	<path fill="#FFFFFF" d="M880.375,796.211c-3.747,0-6.785,3.035-6.785,6.782c0,3.748,3.038,6.786,6.785,6.786
		c3.749,0,6.795-3.038,6.795-6.786C887.17,799.246,884.124,796.211,880.375,796.211z"/>
	<path fill="#FFFFFF" d="M467.764,796.211c-3.756,0-6.789,3.035-6.789,6.782c0,3.748,3.033,6.786,6.789,6.786
		c3.745,0,6.783-3.038,6.783-6.786C474.547,799.246,471.509,796.211,467.764,796.211z"/>
	<path fill="#FFFFFF" d="M799.777,381.251c1.017,0,1.79-0.275,2.363-0.833c0.553-0.561,0.831-1.568,0.831-3.01v-23.617
		c0-1.407-0.278-2.353-0.831-2.84c-0.573-0.485-1.347-0.737-2.363-0.737c-0.979,0-1.753,0.252-2.309,0.737
		c-0.552,0.487-0.841,1.433-0.841,2.84v23.831c0,1.409,0.289,2.365,0.841,2.871C798.024,381.007,798.798,381.251,799.777,381.251z"
		/>
	<path fill="#FFFFFF" d="M840.672,381.251c1.013,0,1.8-0.275,2.36-0.833c0.558-0.561,0.833-1.568,0.833-3.01v-23.617
		c0-1.407-0.275-2.353-0.833-2.84c-0.561-0.485-1.348-0.737-2.36-0.737c-0.973,0-1.735,0.252-2.29,0.737
		c-0.573,0.487-0.848,1.433-0.848,2.84v23.831c0,1.409,0.274,2.365,0.848,2.871C838.937,381.007,839.699,381.251,840.672,381.251z"
		/>
</g>
</svg>
